<?xml version="1.0" encoding="utf-8"?>
<svg width="512" height="512" viewBox="0 0 512 512" fill="none" xmlns="http://www.w3.org/2000/svg">
  <g>
    <path d="M0 256C0 114.615 114.615 0 256 0C397.385 0 512 114.615 512 256C512 397.385 397.385 512 256 512C114.615 512 0 397.385 0 256Z" fill="#FF7A00" fill-rule="evenodd" />
    <path d="M0 239.291C0 107.134 107.134 0 239.291 0C371.448 0 478.582 107.134 478.582 239.291C478.582 371.448 371.448 478.582 239.291 478.582C107.134 478.582 0 371.448 0 239.291Z" fill="#FFDA7D" fill-rule="evenodd" transform="translate(16.709 16.709)" />
    <g transform="translate(43.721 43.704)">
      <path d="M0 132.688C35.3493 165.011 81.6406 185.554 132.692 188.075C132.692 188.075 132.692 0 132.692 0C88.4647 44.2264 44.2343 88.4577 0 132.688C0 132.688 0 132.688 0 132.688Z" fill="#FFB730" transform="translate(68.94 236.457)" />
      <path d="M189.834 0C189.834 0 0 0 0 0C2.19302 51.6884 22.8572 98.5858 55.5474 134.29C55.5474 134.29 189.834 0 189.834 0L189.834 0Z" fill="#FFB730" transform="translate(0 221.459)" />
      <path d="M132.368 187.448C132.368 187.448 132.368 0 132.368 0C81.4726 2.51002 35.3023 22.9362 0 55.0884C44.1233 99.2088 88.2437 143.329 132.368 187.448C132.368 187.448 132.368 187.448 132.368 187.448Z" fill="#FFB730" transform="translate(69.268 0.06)" />
      <path d="M55.8314 0C23.0922 35.6053 2.33802 82.3956 0 133.998C0 133.998 189.819 133.998 189.819 133.998C145.158 89.3337 100.497 44.6683 55.8314 0C55.8314 0 55.8314 0 55.8314 0Z" fill="#FFB730" transform="translate(0.015 68.512)" />
      <path d="M135.138 55.5754C99.2408 22.7152 52.0234 2.00402 0 0C0 0 0 190.709 0 190.709C45.0463 145.663 90.0917 100.618 135.138 55.5754C135.138 55.5754 135.138 55.5754 135.138 55.5754Z" fill="#FFB730" transform="translate(220.584 0)" />
      <path d="M0 133.539C0 133.539 188.961 133.539 188.961 133.539C186.629 82.1496 166.043 35.5373 133.539 0C89.0267 44.5123 44.5114 89.0277 0 133.539C0 133.539 0 133.539 0 133.539Z" fill="#FFB730" transform="translate(235.582 68.971)" />
      <path d="M133.827 133.828C166.285 98.1867 186.789 51.4714 188.976 0C188.976 0 0 0 0 0C44.6113 44.6113 89.2157 89.2197 133.827 133.828C133.827 133.828 133.827 133.828 133.827 133.828Z" fill="#FFB730" transform="translate(235.582 221.459)" />
      <path d="M0 0C0 0 0 191.332 0 191.332C52.1764 189.324 99.5178 168.492 135.454 135.454C90.3057 90.3017 45.1533 45.1493 0 0C0 0 0 0 0 0Z" fill="#FFB730" transform="translate(220.584 233.256)" />
    </g>
    <g transform="translate(96.093 79.943)">
      <path d="M63.2564 10.1899C64.9934 10.4849 66.1614 12.1369 65.8654 13.8709C65.8654 13.8709 65.8654 13.8709 65.8654 13.8709C65.5704 15.6079 63.9214 16.7789 62.1843 16.4839C62.1843 16.4839 2.65388 6.33882 2.65388 6.33882C0.916862 6.04382 -0.247149 4.3918 0.0448532 2.65479C0.0448532 2.65479 0.0448532 2.65479 0.0448532 2.65479C0.34386 0.920792 1.99187 -0.250229 3.72888 0.0457764C3.72888 0.0457764 63.2564 10.1899 63.2564 10.1899C63.2564 10.1899 63.2564 10.1899 63.2564 10.1899Z" fill="#FFDA7D" transform="translate(9.617 134.744)" />
      <path d="M5.9575 57.1089C5.07851 58.64 3.1275 59.159 1.60048 58.284C1.60048 58.284 1.60048 58.284 1.60048 58.284C0.0734558 57.4049 -0.453522 55.4499 0.425476 53.9229C0.425476 53.9229 30.5667 1.5975 30.5667 1.5975C31.4457 0.0704956 33.4007 -0.452518 34.9308 0.426487C34.9308 0.426487 34.9308 0.426487 34.9308 0.426487C36.4548 1.30549 36.9778 3.25651 36.0988 4.78352C36.0988 4.78352 5.9575 57.1089 5.9575 57.1089C5.9575 57.1089 5.9575 57.1089 5.9575 57.1089Z" fill="#FFDA7D" transform="translate(183.212 57.548)" />
      <path d="M6.31334 62.9257C5.95033 64.6557 4.25531 65.7518 2.53331 65.3888C2.53331 65.3888 2.53331 65.3888 2.53331 65.3888C0.810303 65.0257 -0.296692 63.3277 0.070282 61.6047C0.070282 61.6047 12.5974 2.52926 12.5974 2.52926C12.9674 0.80625 14.6624 -0.293757 16.3814 0.0692449C16.3814 0.0692449 16.3814 0.0692449 16.3814 0.0692449C18.1004 0.436245 19.2074 2.13026 18.8374 3.85327C18.8374 3.85327 6.31334 62.9257 6.31334 62.9257C6.31334 62.9257 6.31334 62.9257 6.31334 62.9257Z" fill="#FFDA7D" transform="translate(182.461 0)" />
      <path d="M40.7251 16.1464C42.3201 16.9044 42.9961 18.8094 42.2411 20.4004C42.2411 20.4004 42.2411 20.4004 42.2411 20.4004C41.4831 21.9915 39.5781 22.6715 37.9911 21.9165C37.9911 21.9165 1.82378 6.07533 1.82378 6.07533C0.228762 5.32032 -0.447246 3.41232 0.310763 1.8213C0.310763 1.8213 0.310763 1.8213 0.310763 1.8213C1.06877 0.233292 2.96978 -0.446716 4.5608 0.308289C4.5608 0.308289 40.7251 16.1464 40.7251 16.1464C40.7251 16.1464 40.7251 16.1464 40.7251 16.1464Z" fill="#FFDA7D" transform="translate(0 91.392)" />
      <path d="M24.5456 36.6707C25.3216 38.2547 24.6706 40.1667 23.0896 40.9427C23.0896 40.9427 23.0896 40.9427 23.0896 40.9427C21.5086 41.7228 19.5936 41.0677 18.8176 39.4867C18.8176 39.4867 0.327454 4.59747 0.327454 4.59747C-0.452545 3.01646 0.210449 1.10543 1.79047 0.325424C1.79047 0.325424 1.79047 0.325424 1.79047 0.325424C3.37147 -0.446579 5.27949 0.200424 6.0555 1.78545C6.0555 1.78545 24.5456 36.6707 24.5456 36.6707C24.5456 36.6707 24.5456 36.6707 24.5456 36.6707Z" fill="#FFDA7D" transform="translate(116.046 78.638)" />
      <path d="M24.5424 36.673C25.3184 38.257 24.6674 40.169 23.0864 40.945C23.0864 40.945 23.0864 40.945 23.0864 40.945C21.5054 41.725 19.5904 41.073 18.8184 39.489C18.8184 39.489 0.328217 4.59976 0.328217 4.59976C-0.451782 3.01875 0.207214 1.10373 1.78824 0.324725C1.78824 0.324725 1.78824 0.324725 1.78824 0.324725C3.36924 -0.447285 5.28027 0.203722 6.05627 1.78474C6.05627 1.78474 24.5424 36.673 24.5424 36.673C24.5424 36.673 24.5424 36.673 24.5424 36.673Z" fill="#FFDA7D" transform="translate(103.629 11.637)" />
      <path d="M4.28278 26.8086C2.62376 27.4106 0.793732 26.5556 0.192749 24.9006C0.192749 24.9006 0.192749 24.9006 0.192749 24.9006C-0.409241 23.2456 0.44574 21.4116 2.10475 20.8106C2.10475 20.8106 58.8622 0.192413 58.8622 0.192413C60.5172 -0.409592 62.3472 0.44841 62.9522 2.10443C62.9522 2.10443 62.9522 2.10443 62.9522 2.10443C63.5462 3.75945 62.6962 5.59346 61.0402 6.19447C61.0402 6.19447 4.28278 26.8086 4.28278 26.8086C4.28278 26.8086 4.28278 26.8086 4.28278 26.8086Z" fill="#FFDA7D" transform="translate(230.612 116.253)" />
      <path d="M0.0361938 3.66629C-0.226807 1.91829 0.972198 0.298248 2.71721 0.0352478C2.71721 0.0352478 2.71721 0.0352478 2.71721 0.0352478C4.45822 -0.224762 6.08525 0.982239 6.34825 2.72325C6.34825 2.72325 15.2473 62.4497 15.2473 62.4497C15.5073 64.1937 14.3003 65.8178 12.5563 66.0768C12.5563 66.0768 12.5563 66.0768 12.5563 66.0768C10.8153 66.3328 9.19223 65.1298 8.93225 63.3927C8.93225 63.3927 0.0361938 3.66629 0.0361938 3.66629C0.0361938 3.66629 0.0361938 3.66629 0.0361938 3.66629Z" fill="#FFDA7D" transform="translate(177.656 228.287)" />
      <path d="M0.337097 4.61142C-0.452911 3.03442 0.195099 1.11938 1.76411 0.336395C1.76411 0.336395 1.76411 0.336395 1.76411 0.336395C3.34113 -0.450592 5.25615 0.190399 6.05016 1.7674C6.05016 1.7674 32.9444 55.8339 32.9444 55.8339C33.7274 57.4109 33.0834 59.3299 31.5064 60.1129C31.5064 60.1129 31.5064 60.1129 31.5064 60.1129C29.9294 60.8959 28.0173 60.2549 27.2274 58.6749C27.2274 58.6749 0.337097 4.61142 0.337097 4.61142C0.337097 4.61142 0.337097 4.61142 0.337097 4.61142Z" fill="#FFDA7D" transform="translate(209.802 267.628)" />
      <path d="M3.4296 10.4892C1.66757 10.6212 0.140564 9.30014 0.00857544 7.54114C0.00857544 7.54114 0.00857544 7.54114 0.00857544 7.54114C-0.119415 5.78212 1.20157 4.25211 2.9566 4.1241C2.9566 4.1241 42.2289 0.00906372 42.2289 0.00906372C43.9839 -0.12294 45.515 1.20207 45.6459 2.96008C45.6459 2.96008 45.6459 2.96008 45.6459 2.96008C45.7709 4.7191 44.4569 6.24611 42.6949 6.37411C42.6949 6.37411 3.4296 10.4892 3.4296 10.4892C3.4296 10.4892 3.4296 10.4892 3.4296 10.4892Z" fill="#FFDA7D" transform="translate(270.381 145.415)" />
      <path d="M1.57481 5.94719C0.0548096 5.05017 -0.451202 3.09615 0.438812 1.57616C0.438812 1.57616 0.438812 1.57616 0.438812 1.57616C1.33183 0.0561523 3.29385 -0.45285 4.80984 0.440155C4.80984 0.440155 39.4541 19.3853 39.4541 19.3853C40.9741 20.2753 41.4761 22.2363 40.5791 23.7563C40.5791 23.7563 40.5791 23.7563 40.5791 23.7563C39.6891 25.2723 37.7351 25.7823 36.2151 24.8923C36.2151 24.8923 1.57481 5.94719 1.57481 5.94719C1.57481 5.94719 1.57481 5.94719 1.57481 5.94719Z" fill="#FFDA7D" transform="translate(220.38 197.382)" />
      <path d="M1.5777 5.94685C0.0506897 5.05385 -0.451294 3.09885 0.441711 1.57881C0.441711 1.57881 0.441711 1.57881 0.441711 1.57881C1.3277 0.0588074 3.28973 -0.454193 4.80975 0.439789C4.80975 0.439789 39.45 19.3849 39.45 19.3849C40.974 20.278 41.472 22.236 40.586 23.76C40.586 23.76 40.586 23.76 40.586 23.76C39.685 25.273 37.731 25.782 36.218 24.888C36.218 24.888 1.5777 5.94685 1.5777 5.94685C1.5777 5.94685 1.5777 5.94685 1.5777 5.94685Z" fill="#FFDA7D" transform="translate(269.374 239.609)" />
      <path d="M62.025 0.0535889C63.759 -0.266418 65.417 0.879578 65.741 2.61659C65.741 2.61659 65.741 2.61659 65.741 2.61659C66.054 4.34662 64.908 6.01262 63.171 6.32964C63.171 6.32964 3.76453 17.1837 3.76453 17.1837C2.03452 17.5007 0.368504 16.3507 0.0514984 14.6167C0.0514984 14.6167 0.0514984 14.6167 0.0514984 14.6167C-0.261509 12.8867 0.884499 11.2207 2.61852 10.9077C2.61852 10.9077 62.025 0.0535889 62.025 0.0535889C62.025 0.0535889 62.025 0.0535889 62.025 0.0535889Z" fill="#FFDA7D" transform="translate(42.492 194.283)" />
      <path d="M54.8343 0.386353C56.3903 -0.457642 58.3193 0.130341 59.1563 1.67137C59.1563 1.67137 59.1563 1.67137 59.1563 1.67137C59.9933 3.22337 59.4123 5.1604 57.8643 6.0034C57.8643 6.0034 4.70887 34.6566 4.70887 34.6566C3.15286 35.4896 1.21984 34.9096 0.383838 33.3576C0.383838 33.3576 0.383838 33.3576 0.383838 33.3576C-0.453167 31.8055 0.123834 29.8726 1.67585 29.0356C1.67585 29.0356 54.8343 0.386353 54.8343 0.386353C54.8343 0.386353 54.8343 0.386353 54.8343 0.386353Z" fill="#FFDA7D" transform="translate(10.485 227.708)" />
      <path d="M18.1888 1.66563C19.0328 0.117615 20.9729 -0.452393 22.5209 0.387604C22.5209 0.387604 22.5209 0.387604 22.5209 0.387604C24.0729 1.22762 24.6459 3.17163 23.7989 4.71664C23.7989 4.71664 5.99974 39.9659 5.99974 39.9659C5.15974 41.5139 3.21572 42.0809 1.66371 41.2369C1.66371 41.2369 1.66371 41.2369 1.66371 41.2369C0.118698 40.3969 -0.4543 38.4599 0.389694 36.9119C0.389694 36.9119 18.1888 1.66563 18.1888 1.66563C18.1888 1.66563 18.1888 1.66563 18.1888 1.66563Z" fill="#FFDA7D" transform="translate(116.387 235.969)" />
      <path d="M18.1887 1.66641C19.0327 0.11441 20.9657 -0.451599 22.5138 0.388397C22.5138 0.388397 22.5138 0.388397 22.5138 0.388397C24.0658 1.2254 24.6388 3.16843 23.7918 4.71744C23.7918 4.71744 5.99663 39.9627 5.99663 39.9627C5.15263 41.5147 3.21261 42.0777 1.6606 41.2407C1.6606 41.2407 1.6606 41.2407 1.6606 41.2407C0.119583 40.3937 -0.454422 38.4567 0.389587 36.9157C0.389587 36.9157 18.1887 1.66641 18.1887 1.66641C18.1887 1.66641 18.1887 1.66641 18.1887 1.66641Z" fill="#FFDA7D" transform="translate(75.795 286.325)" />
    </g>
  </g>
</svg>