<?xml version="1.0" encoding="utf-8"?>
<svg width="241" height="71.3" viewBox="0 0 241 71.3" fill="none" xmlns="http://www.w3.org/2000/svg">
  <defs>
    <filter color-interpolation-filters="sRGB" x="-3.364" y="-3.312" width="5.364" height="5.312" id="filter_1">
      <feFlood flood-opacity="0" result="BackgroundImageFix_1" />
      <feColorMatrix type="matrix" values="0 0 0 0 0 0 0 0 0 0 0 0 0 0 0 0 0 0 1 0" in="SourceAlpha" />
      <feOffset dx="0" dy="0" />
      <feGaussianBlur stdDeviation="7.5" />
      <feColorMatrix type="matrix" values="0 0 0 0 1 0 0 0 0 1 0 0 0 0 1 0 0 0 0.09 0" />
      <feBlend mode="normal" in2="BackgroundImageFix_1" result="Shadow_2" />
      <feBlend mode="normal" in="SourceGraphic" in2="Shadow_2" result="Shape_3" />
    </filter>
  </defs>
  <g>
    <g transform="matrix(0 1 -1 0 70 1)">
      <path d="M35 35C35 35 0 35 0 35C0 39.5963 0.905294 44.1475 2.66421 48.3939C4.42313 52.6403 7.00121 56.4987 10.2513 59.7487C13.5013 62.9988 17.3597 65.5769 21.6061 67.3358C25.8525 69.0947 30.4037 70 35 70C39.5963 70 44.1475 69.0947 48.3939 67.3358C52.6403 65.5769 56.4987 62.9988 59.7487 59.7487C62.9988 56.4987 65.5769 52.6403 67.3358 48.3939C69.0947 44.1475 70 39.5963 70 35C70 35 35 35 35 35Z" fill="#FF7A00" fill-rule="evenodd" />
      <path d="M32.7155 32.7155C32.7155 32.7155 0 32.7155 0 32.7155C0 37.0118 0.846206 41.266 2.49032 45.2352C4.13443 49.2045 6.54424 52.811 9.58217 55.8489C12.6201 58.8869 16.2266 61.2967 20.1958 62.9408C24.1651 64.5849 28.4193 65.4311 32.7155 65.4311C37.0118 65.4311 41.266 64.5849 45.2353 62.9408C49.2045 61.2967 52.811 58.8869 55.8489 55.8489C58.8869 52.811 61.2967 49.2045 62.9408 45.2352C64.5849 41.266 65.4311 37.0118 65.4311 32.7155C65.4311 32.7155 32.7155 32.7155 32.7155 32.7155Z" fill="#FFDA7D" fill-rule="evenodd" transform="translate(2.284 2.284)" />
      <g transform="translate(5.978 36.253)">
        <path d="M0 18.1409C4.83291 22.5601 11.1618 25.3688 18.1415 25.7134C18.1415 25.7134 18.1415 0 18.1415 0C12.0948 6.04657 6.04766 12.0938 0 18.1409C0 18.1409 0 18.1409 0 18.1409Z" fill="#FFB730" fill-rule="evenodd" transform="translate(9.425 2.051)" />
        <path d="M25.9539 0C25.9539 0 0 0 0 0C0.299827 7.06677 3.12501 13.4785 7.59438 18.36C7.59438 18.36 25.9539 0 25.9539 0L25.9539 0Z" fill="#FFB730" fill-rule="evenodd" />
        <path d="M18.2967 18.2968C22.7343 13.424 25.5376 7.03711 25.8365 0C25.8365 0 0 0 0 0C6.09921 6.09921 12.1975 12.198 18.2967 18.2968C18.2967 18.2968 18.2967 18.2968 18.2967 18.2968Z" fill="#FFB730" fill-rule="evenodd" transform="translate(32.208 0)" />
        <path d="M0 0C0 0 0 26.1587 0 26.1587C7.13349 25.8842 13.6059 23.0361 18.5191 18.5191C12.3465 12.3459 6.17331 6.17276 0 0C0 0 0 0 0 0Z" fill="#FFB730" fill-rule="evenodd" transform="translate(30.158 1.613)" />
      </g>
      <g transform="translate(14.571 37.492)">
        <path d="M0.00494766 0.50125C-0.0310097 0.262266 0.132919 0.0407763 0.371494 0.00481892C0.371494 0.00481892 0.371494 0.00481892 0.371494 0.00481892C0.609524 -0.0307293 0.831968 0.134292 0.867926 0.37232C0.867926 0.37232 2.08459 8.53805 2.08459 8.53805C2.12014 8.77649 1.95512 8.99853 1.71668 9.03394C1.71668 9.03394 1.71668 9.03394 1.71668 9.03394C1.47865 9.06894 1.25675 8.90446 1.22121 8.66698C1.22121 8.66698 0.00494766 0.50125 0.00494766 0.50125C0.00494766 0.50125 0.00494766 0.50125 0.00494766 0.50125Z" fill="#FFDA7D" fill-rule="evenodd" transform="translate(22.855 4.649)" />
        <path d="M0.0460873 0.630468C-0.0619221 0.414862 0.0266743 0.153042 0.241188 0.0459919C0.241188 0.0459919 0.241188 0.0459919 0.241188 0.0459919C0.456795 -0.0616045 0.718615 0.0260315 0.827169 0.241638C0.827169 0.241638 4.50411 7.63354 4.50411 7.63354C4.61117 7.84914 4.52312 8.11151 4.30751 8.21856C4.30751 8.21856 4.30751 8.21856 4.30751 8.21856C4.09191 8.32561 3.8305 8.23798 3.72249 8.02196C3.72249 8.02196 0.0460873 0.630468 0.0460873 0.630468C0.0460873 0.630468 0.0460873 0.630468 0.0460873 0.630468Z" fill="#FFDA7D" fill-rule="evenodd" transform="translate(27.251 10.028)" />
        <path d="M0.215305 0.813093C0.00749397 0.690454 -0.0616875 0.423302 0.0599937 0.21549C0.0599937 0.21549 0.0599937 0.21549 0.0599937 0.21549C0.182085 0.00767714 0.450331 -0.0619136 0.657597 0.0601779C0.657597 0.0601779 5.39412 2.65034 5.39412 2.65034C5.60193 2.77202 5.67056 3.04013 5.54792 3.24794C5.54792 3.24794 5.54792 3.24794 5.54792 3.24794C5.42624 3.45521 5.1591 3.52493 4.95128 3.40325C4.95128 3.40325 0.215305 0.813093 0.215305 0.813093C0.215305 0.813093 0.215305 0.813093 0.215305 0.813093Z" fill="#FFDA7D" fill-rule="evenodd" transform="translate(28.697 0.424)" />
        <path d="M0.215702 0.813046C0.0069313 0.690955 -0.0616989 0.423669 0.0603905 0.215853C0.0603905 0.215853 0.0603905 0.215853 0.0603905 0.215853C0.181522 0.00803995 0.449768 -0.0620971 0.657585 0.0601277C0.657585 0.0601277 5.39355 2.65029 5.39355 2.65029C5.60191 2.77238 5.67 3.04008 5.54886 3.24843C5.54886 3.24843 5.54886 3.24843 5.54886 3.24843C5.42568 3.45529 5.15853 3.52488 4.95167 3.40265C4.95167 3.40265 0.215702 0.813046 0.215702 0.813046C0.215702 0.813046 0.215702 0.813046 0.215702 0.813046Z" fill="#FFDA7D" fill-rule="evenodd" transform="translate(35.395 6.197)" />
        <path d="M8.47998 0.00732666C8.71705 -0.0364247 8.94373 0.120256 8.98803 0.357738C8.98803 0.357738 8.98803 0.357738 8.98803 0.357738C9.03082 0.594265 8.87414 0.822038 8.63666 0.86538C8.63666 0.86538 0.514681 2.34934 0.514681 2.34934C0.278156 2.39268 0.0503812 2.23545 0.00704098 1.99838C0.00704098 1.99838 0.00704098 1.99838 0.00704098 1.99838C-0.0357528 1.76185 0.120927 1.53408 0.358001 1.49128C0.358001 1.49128 8.47998 0.00732666 8.47998 0.00732666C8.47998 0.00732666 8.47998 0.00732666 8.47998 0.00732666Z" fill="#FFDA7D" fill-rule="evenodd" transform="translate(4.376 0)" />
        <path d="M7.49687 0.0528221C7.70961 -0.0625687 7.97334 0.0178204 8.08778 0.228508C8.08778 0.228508 8.08778 0.228508 8.08778 0.228508C8.20221 0.440697 8.12277 0.705525 7.91113 0.820778C7.91113 0.820778 0.643791 4.73821 0.643791 4.73821C0.431055 4.8521 0.166775 4.7728 0.0524778 4.56061C0.0524778 4.56061 0.0524778 4.56061 0.0524778 4.56061C-0.0619564 4.34842 0.0169304 4.08414 0.22912 3.96971C0.22912 3.96971 7.49687 0.0528221 7.49687 0.0528221C7.49687 0.0528221 7.49687 0.0528221 7.49687 0.0528221Z" fill="#FFDA7D" fill-rule="evenodd" transform="translate(0 4.57)" />
        <path d="M2.48675 0.227723C2.60215 0.0160804 2.86738 -0.061851 3.07903 0.0529933C3.07903 0.0529933 3.07903 0.0529933 3.07903 0.0529933C3.29121 0.167837 3.36956 0.43362 3.25375 0.644854C3.25375 0.644854 0.820277 5.46409 0.820277 5.46409C0.705433 5.67573 0.43965 5.75325 0.22746 5.63786C0.22746 5.63786 0.22746 5.63786 0.22746 5.63786C0.0162287 5.52301 -0.0621119 5.25819 0.0532789 5.04654C0.0532789 5.04654 2.48675 0.227723 2.48675 0.227723C2.48675 0.227723 2.48675 0.227723 2.48675 0.227723Z" fill="#FFDA7D" fill-rule="evenodd" transform="translate(14.479 5.699)" />
        <path d="M2.48674 0.227832C2.60213 0.0156422 2.86641 -0.0617428 3.07805 0.0531015C3.07805 0.0531015 3.07805 0.0531015 3.07805 0.0531015C3.29024 0.167537 3.36858 0.433183 3.25278 0.644963C3.25278 0.644963 0.819852 5.46365 0.819852 5.46365C0.704461 5.67584 0.439224 5.75282 0.227035 5.63838C0.227035 5.63838 0.227035 5.63838 0.227035 5.63838C0.0163498 5.52258 -0.0621281 5.25776 0.0532646 5.04707C0.0532646 5.04707 2.48674 0.227832 2.48674 0.227832C2.48674 0.227832 2.48674 0.227832 2.48674 0.227832Z" fill="#FFDA7D" fill-rule="evenodd" transform="translate(8.929 12.584)" />
      </g>
    </g>
    <g transform="translate(39 0)">
      <path d="M108.458 10.9649L116.57 10.9649L116.57 9.62569C116.57 6.9333 116.311 5.02559 115.792 3.9026C115.273 2.77959 114.216 1.84842 112.618 1.10905C111.021 0.369682 109.087 1.19209e-07 106.819 1.19209e-07C104.744 1.19209e-07 102.974 0.338295 101.508 1.01489C100.042 1.69148 98.9807 2.62963 98.3233 3.82935C97.6668 5.02908 97.3385 6.92632 97.3385 9.52106C97.3385 11.3207 97.5703 12.7994 98.0335 13.9573C98.4959 15.1151 99.0815 16.0219 99.7873 16.6776C100.492 17.3332 101.93 18.3865 104.102 19.8373C106.273 21.2742 107.635 22.2995 108.189 22.9134C108.728 23.5271 108.997 24.8315 108.997 26.8264C108.997 27.7332 108.855 28.4168 108.572 28.8771C108.288 29.3375 107.857 29.5677 107.276 29.5677C106.695 29.5677 106.291 29.3863 106.063 29.0236C105.835 28.6609 105.72 27.8448 105.72 26.5753L105.72 22.453L97.6082 22.453L97.6082 24.6711C97.6082 27.2101 97.864 29.1701 98.3757 30.5512C98.8874 31.9322 99.9691 33.0692 101.622 33.9621C103.276 34.8548 105.27 35.301 107.607 35.301C109.737 35.301 111.605 34.9141 113.209 34.1398C114.814 33.3657 115.896 32.4066 116.456 31.2626C117.016 30.1187 117.296 28.3401 117.296 25.9266C117.296 22.6064 116.791 20.2 115.782 18.7073C114.772 17.2147 112.324 15.3035 108.438 12.9738C107.083 12.1647 106.26 11.4741 105.969 10.9021C105.665 10.3302 105.512 9.47921 105.512 8.34926C105.512 7.47039 105.647 6.81472 105.917 6.38226C106.186 5.94979 106.584 5.73357 107.11 5.73357C107.595 5.73357 107.94 5.89401 108.147 6.21485C108.355 6.53571 108.458 7.28207 108.458 8.45389L108.458 10.9649L108.458 10.9649ZM139.183 15.4848L147.917 15.4848L147.917 12.2623C147.917 9.09557 147.655 6.76241 147.13 5.26274C146.602 3.7631 145.503 2.51105 143.831 1.50663C142.156 0.502211 140.034 1.19209e-07 137.46 1.19209e-07C135.566 1.19209e-07 133.889 0.324344 132.431 0.973032C130.971 1.62172 129.83 2.51105 129.007 3.64103C128.184 4.77099 127.691 5.94631 127.524 7.16698C127.358 8.38764 127.275 10.2186 127.275 12.6599L127.275 22.5577C127.275 25.8778 127.543 28.3645 128.085 30.0176C128.622 31.6707 129.724 32.9646 131.383 33.8993C133.042 34.8339 135.151 35.301 137.71 35.301C140.172 35.301 142.243 34.7502 143.924 33.6482C145.603 32.5461 146.688 31.2626 147.18 29.7979C147.672 28.3331 147.917 25.8499 147.917 22.3484L147.917 21.0301L139.183 21.0301L139.183 25.2779C139.183 27.1334 139.082 28.3121 138.881 28.8143C138.681 29.3166 138.255 29.5677 137.605 29.5677C136.928 29.5677 136.492 29.3166 136.298 28.8143C136.106 28.3121 136.008 27.2379 136.008 25.5918L136.008 9.85586C136.008 8.13999 136.106 7.02398 136.298 6.50781C136.492 5.99164 136.948 5.73357 137.669 5.73357C138.305 5.73357 138.716 5.94631 138.902 6.3718C139.09 6.79729 139.183 7.86798 139.183 9.58384L139.183 15.4848L139.183 15.4848ZM20.0817 34.5894L20.0817 0.711306L11.348 0.711306L11.348 12.8271L8.73398 12.8271L8.73398 0.711306L0 0.711306L0 34.5894L8.73398 34.5894L8.73398 20.3602L11.348 20.3602L11.348 34.5894L20.0817 34.5894L20.0817 34.5894ZM43.6699 34.5894L38.6704 0.711306L26.0361 0.711306L21.5966 34.5894L30.6418 34.5894L31.1602 28.5002L34.293 28.5002L34.7287 34.5894L43.6699 34.5894L43.6699 34.5894ZM53.8974 34.5894L53.8974 0.711306L45.1635 0.711306L45.1635 34.5894L53.8974 34.5894L53.8974 34.5894ZM76.904 34.5894L76.904 0.711306L69.6012 0.711306L69.6012 15.9659L64.7059 0.711306L57.4031 0.711306L57.4031 34.5894L64.7059 34.5894L64.7059 19.1884L69.2491 34.5894L76.904 34.5894L76.904 34.5894ZM94.9738 0.711306L80.4104 0.711306L80.4104 34.5894L95.5546 34.5894L95.5546 27.8097L89.1445 27.8097L89.1445 20.3602L94.6005 20.3602L94.6005 13.9152L89.1445 13.9152L89.1445 7.49111L94.9738 7.49111L94.9738 0.711306L94.9738 0.711306ZM159.782 34.5894L159.782 0.711306L151.048 0.711306L151.048 34.5894L159.782 34.5894L159.782 34.5894ZM180.881 7.49111L180.881 0.711306L161.795 0.711306L161.795 7.49111L166.96 7.49111L166.96 34.5894L175.694 34.5894L175.694 7.49111L180.881 7.49111L180.881 7.49111ZM195.63 22.3272L202 0.711306L193.972 0.711306C192.837 5.98451 192.03 10.4276 191.544 14.0408C191.392 11.7529 190.686 7.30978 189.428 0.711306L181.4 0.711306L187.542 22.3272L187.542 34.5894L195.63 34.5894L195.63 22.3272L195.63 22.3272ZM32.7155 8.28688C33.1583 13.9228 33.6006 18.6589 34.0435 22.4952L31.0561 22.4952C31.2774 19.4959 31.8307 14.7598 32.7155 8.28688L32.7155 8.28688Z" fill="#FF7A00" />
      <path d="M0 2.89778C0 2.89778 0 2.41482 0 2.41482L1.91526 1.93186L2.39408 0L2.87289 0L3.35172 1.93186L5.26698 2.41482L5.26698 2.89778L3.35172 3.38075L2.87289 5.3126L2.39408 5.3126L1.91526 3.38075C1.91526 3.38075 0 2.89778 0 2.89778Z" fill="#FFFFFF" transform="translate(110.255 26.917)" />
      <path d="M0 2.89778C0 2.89778 0 2.41482 0 2.41482L1.91525 1.93186L2.39407 0L2.87288 0L3.3517 1.93186L5.26695 2.41482L5.26695 2.89778L3.3517 3.38075L2.87288 5.3126L2.39407 5.3126L1.91525 3.38075C1.91525 3.38075 0 2.89778 0 2.89778Z" fill="#FFFFFF" transform="translate(194.878 1.771)" />
      <path d="M0 2.89778C0 2.89778 0 2.41482 0 2.41482L1.91527 1.93186L2.39408 0L2.8729 0L3.35172 1.93186L5.26698 2.41482L5.26698 2.89778L3.35172 3.38075L2.8729 5.3126L2.39408 5.3126L1.91527 3.38075C1.91527 3.38075 0 2.89778 0 2.89778Z" fill="#FFFFFF" transform="translate(1.755 1.771)" />
    </g>
    <g transform="translate(39 36)">
      <path d="M12.1277 15.4844L21.0225 15.4844L21.0225 12.2619C21.0225 9.09531 20.7551 6.76222 20.2198 5.26259C19.6846 3.76298 18.5648 2.51098 16.8604 1.50659C15.1561 0.502196 12.9939 2.34506e-07 10.374 2.34506e-07C8.44429 2.34506e-07 6.73643 0.324335 5.25039 0.973006C3.76437 1.62168 2.60231 2.51098 1.76422 3.64093C0.926126 4.77085 0.422567 5.94613 0.25354 7.16675C0.0845135 8.38736 2.98023e-08 10.2183 2.98023e-08 12.6595L2.98023e-08 22.5569C2.98023e-08 25.8771 0.274669 28.3636 0.824008 30.0167C1.37334 31.6697 2.49315 32.9636 4.18342 33.8982C5.87368 34.8329 8.02173 35.3 10.6276 35.3C13.1348 35.3 15.2441 34.7492 16.9555 33.6472C18.6669 32.5451 19.7726 31.2617 20.2726 29.797C20.7727 28.3322 21.0225 25.8492 21.0225 22.3477L21.0225 21.0295L12.1277 21.0295L12.1277 25.2772C12.1277 27.1325 12.0256 28.3113 11.8213 28.8135C11.6171 29.3157 11.1839 29.5668 10.5219 29.5668C9.83174 29.5668 9.38803 29.3157 9.19084 28.8135C8.99364 28.3113 8.89505 27.2372 8.89505 25.5911L8.89505 9.85559C8.89505 8.13975 8.99364 7.02378 9.19084 6.50763C9.38803 5.99147 9.85286 5.73339 10.5853 5.73339C11.2332 5.73339 11.6523 5.94613 11.8424 6.3716C12.0326 6.7971 12.1277 7.86773 12.1277 9.58356L12.1277 15.4844L12.1277 15.4844ZM151.468 13.1827L160.363 13.1827L160.363 11.7179C160.363 8.94187 160.102 6.82499 159.582 5.36721C159.059 3.90946 157.94 2.65049 156.221 1.59029C154.503 0.530096 152.341 1.23767e-07 149.735 1.23767e-07C147.087 1.23767e-07 144.929 0.610308 143.26 1.83092C141.591 3.05153 140.579 4.39422 140.227 5.85896C139.875 7.3237 139.7 9.67424 139.7 12.9106L139.7 22.9755C139.7 25.305 139.784 27.0523 139.952 28.2172C140.123 29.382 140.544 30.4944 141.22 31.5546C141.897 32.6149 142.887 33.5042 144.19 34.2226C145.492 34.941 146.89 35.3 148.384 35.3C149.637 35.3 150.725 35.0386 151.648 34.5154C152.57 33.9924 153.334 33.2077 153.939 32.1615L154.763 34.5887L160.363 34.5887L160.363 16.4051L149.946 16.4051L149.946 21.5525L151.742 21.5525L151.742 25.5702C151.742 27.1465 151.627 28.2067 151.394 28.7508C151.162 29.2948 150.721 29.5668 150.073 29.5668C149.481 29.5668 149.088 29.3261 148.891 28.8449C148.693 28.3636 148.595 27.3627 148.595 25.8422L148.595 9.58356C148.595 7.8538 148.693 6.77966 148.891 6.36114C149.088 5.94265 149.461 5.7334 150.009 5.7334C150.645 5.7334 151.046 5.97752 151.214 6.46577C151.384 6.95402 151.468 8.16766 151.468 10.1067L151.468 13.1827L151.468 13.1827ZM33.1082 27.8092L33.1082 0.711614L24.2131 0.711614L24.2131 34.5887L38.5169 34.5887L38.5169 27.8092L33.1082 27.8092L33.1082 27.8092ZM55.504 0.711614L40.6718 0.711614L40.6718 34.5887L56.0954 34.5887L56.0954 27.8092L49.5668 27.8092L49.5668 20.36L55.1233 20.36L55.1233 13.9152L49.5668 13.9152L49.5668 7.49125L55.504 7.49125L55.504 0.711614L55.504 0.711614ZM79.1037 34.5887L74.0121 0.711614L61.1447 0.711614L56.6233 34.5887L65.8351 34.5887L66.3636 28.4997L69.5539 28.4997L69.9975 34.5887L79.1037 34.5887L79.1037 34.5887ZM100.486 34.5887L100.486 0.711614L93.0489 0.711614L93.0489 15.9657L88.0626 0.711614L80.6256 0.711614L80.6256 34.5887L88.0626 34.5887L88.0626 19.1882L92.6895 34.5887L100.486 34.5887L100.486 34.5887ZM112.952 34.5887L112.952 0.711614L104.057 0.711614L104.057 34.5887L112.952 34.5887L112.952 34.5887ZM136.382 34.5887L136.382 0.711614L128.945 0.711614L128.945 15.9657L123.959 0.711614L116.522 0.711614L116.522 34.5887L123.959 34.5887L123.959 19.1882L128.586 34.5887L136.382 34.5887L136.382 34.5887ZM67.9479 8.28575C68.399 13.9215 68.8493 18.6575 69.3002 22.4936L66.2578 22.4936C66.4835 19.4945 67.0465 14.7585 67.9479 8.28575L67.9479 8.28575Z" fill="#FFB730" />
      <path d="M0 2.8977C0 2.8977 0 2.41475 0 2.41475L1.95059 1.9318L2.43823 0L2.92589 0L3.41353 1.9318L5.36412 2.41475L5.36412 2.8977L3.41353 3.38065L2.92589 5.31245L2.43823 5.31245L1.95059 3.38065C1.95059 3.38065 0 2.8977 0 2.8977Z" fill="#FFFFFF" transform="translate(154.486 28.333)" />
      <path d="M0 2.89771C0 2.89771 0 2.41476 0 2.41476L1.95059 1.9318L2.43823 0L2.92588 0L3.41353 1.9318L5.36412 2.41476L5.36412 2.89771L3.41353 3.38066L2.92588 5.31246L2.43823 5.31246L1.95059 3.38066C1.95059 3.38066 0 2.89771 0 2.89771Z" fill="#FFFFFF" filter="url(#filter_1)" transform="translate(2.146 3.187)" />
    </g>
  </g>
</svg>